<?xml version="1.0" encoding="UTF-8"?>
<svg width="28px" height="18px" viewBox="0 0 28 18" version="1.1" xmlns="http://www.w3.org/2000/svg" xmlns:xlink="http://www.w3.org/1999/xlink">
    <!-- Generator: Sketch 60 (88103) - https://sketch.com -->
    <title>logo-w</title>
    <desc>Created with Sketch.</desc>
    <g id="logo-w" stroke="none" stroke-width="1" fill="none" fill-rule="evenodd">
        <g id="logo" fill="#54595D" fill-rule="nonzero">
            <path d="M15.215,0.00444444444 C16.4934828,-0.0045210728 19.200327,0.00258950984 19.746682,0.00415660976 L19.844,0.00444444444 L19.901,0.0564444444 L19.901,0.552444444 C19.901,0.689444444 19.824,0.757444444 19.672,0.757444444 C18.926,0.792444444 18.773,0.866444444 18.5,1.25944444 C18.3841111,1.42588888 18.1805062,1.74175308 17.9522332,2.1176406 L17.752,2.45244444 L15.134,7.34844444 C15.134,7.34844444 15.1085922,7.40153032 15.0613999,7.49993864 L18.26,14.0494444 L18.454,14.1024444 L23.494,2.14144444 C23.669,1.65944444 23.642,1.31744444 23.417,1.11644444 C23.191,0.921444444 23.032,0.804444444 22.448,0.780444444 L21.975,0.757444444 C21.917,0.757444444 21.862,0.736444444 21.809,0.696444444 C21.757,0.659444444 21.73,0.610444444 21.73,0.551444444 L21.73,0.0534444444 L21.802,0.00244444444 L27.496,0.00244444444 L27.496,0.00244444444 L27.554,0.0534444444 L27.554,0.551444444 C27.554,0.686444444 27.477,0.754444444 27.325,0.754444444 C26.579,0.787444444 26.026,0.949444444 25.668,1.23844444 C25.309,1.52944444 25.029,1.92944444 24.828,2.45144444 C24.828,2.45144444 20.193,13.0594444 18.607,16.5864444 C18,17.7424444 17.403,17.6364444 16.878,16.5534444 C16.2206472,15.1996176 14.8556852,12.2137926 13.8529336,10.0063434 C12.7805182,12.2181193 11.3121895,15.2163834 10.584,16.5664444 C9.876,17.7974444 9.293,17.6364444 8.829,16.5984444 C7.218,12.7974444 3.91,6.12344444 2.353,2.38344444 C2.065,1.69444444 1.848,1.25244444 1.643,1.07744444 C1.437,0.904444444 1.009,0.800444444 0.358,0.765444444 C0.119,0.739444444 3.55271368e-14,0.681444444 3.55271368e-14,0.587444444 L3.55271368e-14,0.587444444 L3.55271368e-14,0.0664444444 L0.058,0.0154444444 C0.962117647,0.0103267974 4.8271955,0.0139392541 5.94443039,0.0151124171 L6.248,0.0154444444 L6.306,0.0664444444 L6.306,0.562444444 C6.306,0.699444444 6.219,0.765444444 6.048,0.765444444 L6.048,0.765444444 L5.402,0.792444444 C4.848,0.815444444 4.571,0.981444444 4.571,1.28844444 C4.571,1.43144444 4.629,1.66444444 4.758,1.97644444 C5.998,4.99844444 10.281,14.0294444 10.281,14.0294444 L10.281,14.0294444 L10.438,14.0704444 L13.1983758,8.56281017 C12.8610712,7.81762294 12.646,7.34044444 12.646,7.34044444 L10.748,3.61044444 C10.748,3.61044444 10.381,2.86444444 10.256,2.61644444 C9.422,0.964444444 9.44,0.876444444 8.597,0.764444444 C8.361,0.733444444 8.239,0.703444444 8.239,0.586444444 L8.239,0.0634444444 L8.31,0.0124444444 L8.63792296,0.0120705185 C10.2698044,0.0104444444 13.222,0.0104444444 13.222,0.0104444444 L13.352,0.0534444444 L13.352,0.574444444 C13.352,0.693444444 13.267,0.754444444 13.094,0.754444444 L12.738,0.805444444 C11.838,0.875444444 11.985,1.24344444 12.583,2.43444444 L14.403,6.158 L16.418,2.14244444 C16.7309286,1.45994444 16.6937857,1.25254138 16.5755918,1.090283 L16.547,1.05344444 C16.467,0.958444444 16.199,0.804444444 15.616,0.781444444 L15.616,0.781444444 L15.387,0.756444444 C15.329,0.756444444 15.275,0.736444444 15.222,0.697444444 C15.17,0.660444444 15.144,0.612444444 15.144,0.551444444 L15.144,0.551444444 L15.144,0.0554444444 Z" id="Shape"></path>
        </g>
    </g>
</svg>