<svg xmlns="http://www.w3.org/2000/svg" width="127" height="37" viewBox="0 0 127 37">
  <g fill="none" fill-rule="evenodd" transform="translate(0 7)">
    <path fill="#54595D" fill-rule="nonzero" d="M28.5581055 3.84619141C30.4116211 3.84619141 31.5224609 4.87451172 31.6748047 6.46777344L31.6748047 6.46777344 29.9482422 6.46777344C29.8212891 5.80126953 29.3452148 5.36328125 28.5581055 5.36328125 27.5615234 5.36328125 27.0029297 6.10595703 27.0029297 7.48339844 27.0029297 8.87988281 27.5678711 9.63525391 28.5581055 9.63525391 29.3134766 9.63525391 29.8085938 9.26708984 29.9482422 8.57519531L29.9482422 8.57519531 31.6748047 8.57519531C31.5224609 10.1430664 30.3798828 11.1523438 28.5581055 11.1523438 26.3745117 11.1523438 25.1367188 9.83203125 25.1367188 7.48339844 25.1367188 5.16015625 26.3681641 3.84619141 28.5581055 3.84619141zM39.9648438 3.84619141C42.027832 3.84619141 43.246582 5.16015625 43.246582 7.38183594L43.246582 7.94677734 38.4414062 7.94677734 38.4414062 8.04199219C38.4667969 9.08300781 39.0761719 9.73046875 40.0410156 9.73046875 40.7709961 9.73046875 41.2724609 9.47021484 41.4692383 9.00683594L43.1894531 9.00683594C42.9165039 10.3208008 41.7041016 11.1523438 39.9902344 11.1523438 37.8574219 11.1523438 36.6005859 9.80664062 36.6005859 7.53417969 36.6005859 5.25537109 37.8828125 3.84619141 39.9648438 3.84619141zM18.7636719 2.33544922L18.7636719 4.06835938 20.2172852 4.06835938 20.2172852 5.52197266 18.7636719 5.52197266 18.7636719 8.67041016C18.7636719 9.27978516 19.0429688 9.55908203 19.6713867 9.55908203 19.8161133 9.55908203 19.919707 9.55679687 20.0178164 9.55085547L20.0178164 9.55085547 20.2172852 9.53369141 20.2172852 10.9428711C19.9887695 10.9873047 19.6459961 11.0253906 19.2905273 11.0253906 17.5893555 11.0253906 16.9165039 10.4731445 16.9165039 9.10839844L16.9165039 9.10839844 16.9165039 5.52197266 15.824707 5.52197266 15.824707 4.06835938 16.9165039 4.06835938 16.9165039 2.33544922 18.7636719 2.33544922zM5.890625 1.84033203L9.07080078 11 6.99511719 11 6.30322266 8.81640625 3.08496094 8.81640625 2.38037109 11 .45703125 11 3.63720703 1.84033203 5.890625 1.84033203zM14.1489258 3.88427734C14.402832 3.88427734 14.7138672 3.91601562 14.8725586 3.97314453L14.8725586 3.97314453 14.8725586 5.65527344C14.7265625 5.59814453 14.2949219 5.54101562 13.996582 5.54101562 12.9873047 5.54101562 12.2954102 6.13769531 12.2954102 7.12158203L12.2954102 7.12158203 12.2954102 11 10.4482422 11 10.4482422 3.99853516 12.2382812 3.99853516 12.2382812 5.11572266 12.3525391 5.11572266C12.5366211 4.41748047 13.2602539 3.88427734 14.1489258 3.88427734zM23.6132812 3.99853516L23.6132812 11 21.7661133 11 21.7661133 3.99853516 23.6132812 3.99853516zM35.0263672 1.32617188L35.0263672 11 33.1791992 11 33.1791992 1.32617188 35.0263672 1.32617188zM4.76074219 3.74462891L4.64648438 3.74462891 3.49755859 7.33740234 5.89697266 7.33740234 4.76074219 3.74462891zM39.9711914 5.26171875C39.1142578 5.26171875 38.5112305 5.85839844 38.4477539 6.76611328L38.4477539 6.76611328 41.4311523 6.76611328 41.4311523 6.76611328 41.419072 6.60623839C41.3262952 5.77339695 40.7836914 5.26171875 39.9711914 5.26171875zM22.6928711.837402344C23.2705078.837402344 23.7402344 1.30078125 23.7402344 1.89111328 23.7402344 2.48144531 23.2705078 2.95117188 22.6928711 2.95117188 22.121582 2.95117188 21.6455078 2.48144531 21.6455078 1.89111328 21.6455078 1.30078125 22.121582.837402344 22.6928711.837402344zM57.1108398 1.84033203L57.1108398 11 60.7163086 11C63.4584961 11 65.0136719 9.33056641 65.0136719 6.35351562 65.0136719 3.484375 63.4394531 1.84033203 60.7163086 1.84033203L57.1108398 1.84033203zM59.027832 3.47802734L60.4116211 3.47802734C62.074707 3.47802734 63.0585938 4.53173828 63.0585938 6.38525391 63.0585938 8.32128906 62.1064453 9.36230469 60.4116211 9.36230469L59.027832 9.36230469 59.027832 3.47802734zM66.6577148 11L68.5048828 11 68.5048828 3.99853516 66.6577148 3.99853516 66.6577148 11zM67.5844727 2.95117188C68.1621094 2.95117188 68.6318359 2.48144531 68.6318359 1.89111328 68.6318359 1.30078125 68.1621094.837402344 67.5844727.837402344 67.0131836.837402344 66.5371094 1.30078125 66.5371094 1.89111328 66.5371094 2.48144531 67.0131836 2.95117188 67.5844727 2.95117188zM70.2124023 6.05517578C70.2124023 7.13427734 70.8725586 7.78173828 72.230957 8.08007812L73.5004883 8.36572266C74.1162109 8.49902344 74.3828125 8.70849609 74.3828125 9.05126953 74.3828125 9.50195312 73.8876953 9.80029297 73.1704102 9.80029297 72.434082 9.80029297 71.9833984 9.52734375 71.84375 9.05126953L70.0410156 9.05126953C70.1679688 10.3969727 71.2851562 11.1523438 73.1323242 11.1523438 74.9667969 11.1523438 76.2172852 10.2382812 76.2172852 8.84179688 76.2172852 7.79443359 75.6079102 7.22314453 74.2495117 6.92480469L72.9355469 6.63916016C72.2880859 6.49316406 71.9897461 6.28369141 71.9897461 5.94091797 71.9897461 5.49658203 72.4785156 5.19824219 73.1386719 5.19824219 73.8242188 5.19824219 74.2495117 5.47753906 74.3447266 5.92822266L76.0522461 5.92822266C75.9506836 4.58886719 74.9033203 3.84619141 73.1259766 3.84619141 71.3803711 3.84619141 70.2124023 4.72851562 70.2124023 6.05517578zM83.9296875 6.46777344C83.7773438 4.87451172 82.6665039 3.84619141 80.8129883 3.84619141 78.6230469 3.84619141 77.3916016 5.16015625 77.3916016 7.48339844 77.3916016 9.83203125 78.6293945 11.1523438 80.8129883 11.1523438 82.6347656 11.1523438 83.7773438 10.1430664 83.9296875 8.57519531L82.203125 8.57519531C82.0634766 9.26708984 81.5683594 9.63525391 80.8129883 9.63525391 79.8227539 9.63525391 79.2578125 8.87988281 79.2578125 7.48339844 79.2578125 6.10595703 79.8164062 5.36328125 80.8129883 5.36328125 81.6000977 5.36328125 82.0761719 5.80126953 82.203125 6.46777344L83.9296875 6.46777344zM91.7055664 3.99853516L89.8583984 3.99853516 89.8583984 8.03564453C89.8583984 8.96875 89.3632812 9.54638672 88.4428711 9.54638672 87.5922852 9.54638672 87.1542969 9.05126953 87.1542969 8.08642578L87.1542969 3.99853516 85.3071289 3.99853516 85.3071289 8.5625C85.3071289 10.1875 86.246582 11.1523438 87.7573242 11.1523438 88.8173828 11.1523438 89.4711914 10.6889648 89.8012695 9.87646484L89.9155273 9.87646484 89.9155273 11 91.7055664 11 91.7055664 3.99853516zM93.4003906 6.05517578C93.4003906 7.13427734 94.0605469 7.78173828 95.4189453 8.08007812L96.6884766 8.36572266C97.3041992 8.49902344 97.5708008 8.70849609 97.5708008 9.05126953 97.5708008 9.50195312 97.0756836 9.80029297 96.3583984 9.80029297 95.6220703 9.80029297 95.1713867 9.52734375 95.0317383 9.05126953L93.2290039 9.05126953C93.355957 10.3969727 94.4731445 11.1523438 96.3203125 11.1523438 98.1547852 11.1523438 99.4052734 10.2382812 99.4052734 8.84179688 99.4052734 7.79443359 98.7958984 7.22314453 97.4375 6.92480469L96.1235352 6.63916016C95.4760742 6.49316406 95.1777344 6.28369141 95.1777344 5.94091797 95.1777344 5.49658203 95.6665039 5.19824219 96.3266602 5.19824219 97.012207 5.19824219 97.4375 5.47753906 97.5327148 5.92822266L99.2402344 5.92822266C99.1386719 4.58886719 98.0913086 3.84619141 96.3139648 3.84619141 94.5683594 3.84619141 93.4003906 4.72851562 93.4003906 6.05517578zM100.636719 6.05517578C100.636719 7.13427734 101.296875 7.78173828 102.655273 8.08007812L103.924805 8.36572266C104.540527 8.49902344 104.807129 8.70849609 104.807129 9.05126953 104.807129 9.50195312 104.312012 9.80029297 103.594727 9.80029297 102.858398 9.80029297 102.407715 9.52734375 102.268066 9.05126953L100.465332 9.05126953C100.592285 10.3969727 101.709473 11.1523438 103.556641 11.1523438 105.391113 11.1523438 106.641602 10.2382812 106.641602 8.84179688 106.641602 7.79443359 106.032227 7.22314453 104.673828 6.92480469L103.359863 6.63916016C102.712402 6.49316406 102.414062 6.28369141 102.414062 5.94091797 102.414062 5.49658203 102.902832 5.19824219 103.562988 5.19824219 104.248535 5.19824219 104.673828 5.47753906 104.769043 5.92822266L106.476562 5.92822266C106.375 4.58886719 105.327637 3.84619141 103.550293 3.84619141 101.804688 3.84619141 100.636719 4.72851562 100.636719 6.05517578zM108.171387 11L110.018555 11 110.018555 3.99853516 108.171387 3.99853516 108.171387 11zM109.098145 2.95117188C109.675781 2.95117188 110.145508 2.48144531 110.145508 1.89111328 110.145508 1.30078125 109.675781.837402344 109.098145.837402344 108.526855.837402344 108.050781 1.30078125 108.050781 1.89111328 108.050781 2.48144531 108.526855 2.95117188 109.098145 2.95117188zM114.98877 11.1523438C117.140625 11.1523438 118.435547 9.78759766 118.435547 7.49609375 118.435547 5.22363281 117.121582 3.84619141 114.98877 3.84619141 112.855957 3.84619141 111.541992 5.22998047 111.541992 7.49609375 111.541992 9.78759766 112.836914 11.1523438 114.98877 11.1523438zM114.98877 9.64160156C113.998535 9.64160156 113.439941 8.86083984 113.439941 7.49609375 113.439941 6.15039062 114.004883 5.35693359 114.98877 5.35693359 115.966309 5.35693359 116.537598 6.15039062 116.537598 7.49609375 116.537598 8.85449219 115.972656 9.64160156 114.98877 9.64160156zM119.939941 11L119.939941 3.99853516 121.72998 3.99853516 121.72998 5.12207031 121.844238 5.12207031C122.167969 4.33496094 122.878906 3.84619141 123.913574 3.84619141 125.46875 3.84619141 126.306641 4.79833984 126.306641 6.47412109L126.306641 11 124.459473 11 124.459473 6.91210938C124.459473 5.94726562 124.046875 5.43945312 123.170898 5.43945312 122.313965 5.43945312 121.787109 6.04248047 121.787109 6.96289062L121.787109 11 119.939941 11z"/>
    <rect width="43" height="1" x=".5" y="28.5" stroke="#54595D"/>
  </g>
</svg>
