<svg xmlns="http://www.w3.org/2000/svg" width="119" height="18" viewBox="0 0 119 18">
  <g fill="none" fill-rule="evenodd">
    <path fill="#000" fill-rule="nonzero" d="M10.748,3.61044444 C10.748,3.61044444 10.381,2.86444444 10.256,2.61644444 C9.422,0.964444444 9.44,0.876444444 8.597,0.764444444 C8.361,0.733444444 8.239,0.703444444 8.239,0.586444444 L8.239,0.0634444444 L8.31,0.0124444444 C9.833,0.0104444444 13.222,0.0104444444 13.222,0.0104444444 L13.352,0.0534444444 L13.352,0.574444444 C13.352,0.693444444 13.267,0.754444444 13.094,0.754444444 L12.738,0.805444444 C11.838,0.875444444 11.985,1.24344444 12.583,2.43444444 L18.26,14.0494444 L18.454,14.1024444 L23.494,2.14144444 C23.669,1.65944444 23.642,1.31744444 23.417,1.11644444 C23.191,0.921444444 23.032,0.804444444 22.448,0.780444444 L21.975,0.757444444 C21.917,0.757444444 21.862,0.736444444 21.809,0.696444444 C21.757,0.659444444 21.73,0.610444444 21.73,0.551444444 L21.73,0.0534444444 L21.802,0.00244444444 C23.222,0.00244444444 27.496,0.00244444444 27.496,0.00244444444 L27.554,0.0534444444 L27.554,0.551444444 C27.554,0.686444444 27.477,0.754444444 27.325,0.754444444 C26.579,0.787444444 26.026,0.949444444 25.668,1.23844444 C25.309,1.52944444 25.029,1.92944444 24.828,2.45144444 C24.828,2.45144444 20.193,13.0594444 18.607,16.5864444 C18,17.7424444 17.403,17.6364444 16.878,16.5534444 C15.769,14.2694444 12.646,7.34044444 12.646,7.34044444 L10.748,3.61044444 Z"/>
    <path fill="#000" fill-rule="nonzero" d="M19.844.00444444444C19.844.00444444444 16.641-.00555555556 15.215.00444444444L15.144.0554444444 15.144.551444444C15.144.612444444 15.17.660444444 15.222.697444444 15.275.736444444 15.329.756444444 15.387.756444444L15.616.781444444C16.199.804444444 16.467.958444444 16.547 1.05344444 16.686 1.22344444 16.755 1.40744444 16.418 2.14244444L10.438 14.0704444 10.281 14.0294444C10.281 14.0294444 5.998 4.99844444 4.758 1.97644444 4.629 1.66444444 4.571 1.43144444 4.571 1.28844444 4.571.981444444 4.848.815444444 5.402.792444444L6.048.765444444C6.219.765444444 6.306.699444444 6.306.562444444L6.306.0664444444 6.248.0154444444C6.248.0154444444 1.118.00944444444.058.0154444444L3.37507799e-14.0664444444 3.37507799e-14.587444444C3.37507799e-14.681444444.119.739444444.358.765444444 1.009.800444444 1.437.904444444 1.643 1.07744444 1.848 1.25244444 2.065 1.69444444 2.353 2.38344444 3.91 6.12344444 7.218 12.7974444 8.829 16.5984444 9.293 17.6364444 9.876 17.7974444 10.584 16.5664444 11.81 14.2934444 15.134 7.34844444 15.134 7.34844444L17.752 2.45244444C18.057 1.93444444 18.351 1.47344444 18.5 1.25944444 18.773.866444444 18.926.792444444 19.672.757444444 19.824.757444444 19.901.689444444 19.901.552444444L19.901.0564444444 19.844.00444444444zM29.583 15.4874444C29.583 16.0594444 29.843 16.3974444 30.675 16.4754444L31.221 16.5284444C31.299 16.5284444 31.377 16.5794444 31.377 16.6834444L31.377 17.2294444 31.351 17.2824444C31.351 17.2824444 29.375 17.2294444 28.569 17.2294444 27.841 17.2294444 25.813 17.2824444 25.813 17.2824444L25.761 17.2294444 25.761 16.6834444C25.761 16.5794444 25.839 16.5284444 25.943 16.5284444L26.463 16.4754444C27.321 16.3974444 27.581 15.9814444 27.581 15.4874444L27.581 6.82944444C27.581 6.25944444 27.268 6.10044444 26.463 6.02444444L25.943 5.97044444C25.839 5.97044444 25.761 5.94644444 25.761 5.86644444L25.761 5.26744444 25.787 5.21544444C25.787 5.21544444 27.841 5.26744444 28.647 5.26744444 29.349 5.26744444 31.351 5.21544444 31.351 5.21544444L31.377 5.26744444 31.377 5.83944444C31.377 5.91744444 31.325 5.96944444 31.221 5.96944444L30.675 6.02244444C29.869 6.09944444 29.583 6.30844444 29.583 6.82944444L29.583 15.4874444zM37.256 15.4874444C37.256 16.0594444 37.594 16.3454444 38.348 16.4754444L38.634 16.5284444C38.712 16.5534444 38.79 16.5794444 38.79 16.6834444L38.79 17.2294444 38.764 17.2824444C38.764 17.2824444 37.126 17.2294444 36.346 17.2294444 35.618 17.2294444 33.486 17.2824444 33.486 17.2824444L33.434 17.2294444 33.434 16.6834444C33.434 16.5794444 33.512 16.5284444 33.616 16.5284444L34.136 16.4754444C34.916 16.3974444 35.254 15.9814444 35.254 15.4874444L35.254 6.82944444C35.254 6.25944444 34.968 6.10044444 34.136 6.02444444L33.616 5.97044444C33.512 5.97044444 33.434 5.94644444 33.434 5.86644444L33.434 5.26744444 33.46 5.21544444C33.46 5.21544444 35.592 5.26744444 36.398 5.26744444 37.127 5.26744444 38.764 5.21544444 38.764 5.21544444L38.79 5.26744444 38.79 5.83944444C38.79 5.91744444 38.738 5.94344444 38.634 5.96944444L38.348 6.02244444C37.542 6.17744444 37.256 6.30844444 37.256 6.82944444L37.256 10.7564444C38.114 10.7564444 38.608 10.3164444 39.752 9.09244444 40.792 7.94644444 41.598 6.98844444 41.598 6.49144444 41.598 6.28244444 41.364 6.05044444 40.844 5.97044444 40.74 5.94644444 40.688 5.91844444 40.688 5.84044444L40.688 5.24044444 40.714 5.21644444C40.714 5.21644444 42.82 5.26844444 43.574 5.26844444 44.25 5.26844444 45.394 5.21644444 45.394 5.21644444L45.472 5.24044444 45.472 5.84044444C45.472 5.91844444 45.394 5.97044444 45.264 5.97044444 44.25 6.04844444 43.548 6.10044444 42.612 7.16644444L40.376 9.73844444C39.934 10.2084444 39.778 10.4924444 39.778 10.7014444 39.778 10.8574444 39.882 10.9864444 40.012 11.1424444L43.938 15.8744444C44.25 16.2374444 44.874 16.3944444 45.394 16.4974444L45.524 16.5224444C45.602 16.5474444 45.706 16.5994444 45.706 16.6774444L45.706 17.2234444 45.628 17.2494444C45.628 17.2494444 44.25 17.2234444 43.522 17.2234444 42.872 17.2234444 41.936 17.2494444 41.936 17.2494444L41.91 17.2234444 41.91 16.9114444C41.91 16.5724444 41.884 16.2884444 41.52 15.8724444L38.634 12.2834444C38.244 11.7624444 37.828 11.6344444 37.256 11.6344444L37.256 15.4874444 37.256 15.4874444zM51.273 15.4874444C51.273 16.0594444 51.533 16.3974444 52.365 16.4754444L52.911 16.5284444C52.989 16.5284444 53.067 16.5794444 53.067 16.6834444L53.067 17.2294444 53.041 17.2824444C53.041 17.2824444 51.065 17.2294444 50.259 17.2294444 49.531 17.2294444 47.503 17.2824444 47.503 17.2824444L47.451 17.2294444 47.451 16.6834444C47.451 16.5794444 47.529 16.5284444 47.633 16.5284444L48.153 16.4754444C49.011 16.3974444 49.271 15.9814444 49.271 15.4874444L49.271 6.82944444C49.271 6.25944444 48.959 6.10044444 48.153 6.02444444L47.633 5.97044444C47.529 5.97044444 47.451 5.94644444 47.451 5.86644444L47.451 5.26744444 47.477 5.21544444C47.477 5.21544444 49.531 5.26744444 50.337 5.26744444 51.039 5.26744444 53.041 5.21544444 53.041 5.21544444L53.067 5.26744444 53.067 5.83944444C53.067 5.91744444 53.015 5.96944444 52.911 5.96944444L52.365 6.02244444C51.559 6.09944444 51.273 6.30844444 51.273 6.82944444L51.273 15.4874444zM56.891 6.88044444C56.891 6.07444444 56.553 6.04844444 55.331 5.97044444 55.175 5.97044444 55.149 5.89344444 55.149 5.84044444L55.149 5.24244444 55.201 5.21644444C55.591 5.21644444 57.125 5.26844444 57.879 5.26844444 58.607 5.26844444 59.647 5.21644444 60.609 5.21644444 64.299 5.21644444 64.975 7.03544444 64.975 8.38944444 64.975 9.95044444 64.221 12.3934444 60.531 12.3934444 59.881 12.3934444 59.361 12.3404444 58.892 12.1334444L58.892 15.6154444C58.892 16.1864444 59.204 16.3184444 60.037 16.4474444L60.558 16.5254444C60.662 16.5504444 60.741 16.5784444 60.741 16.6804444L60.741 17.2264444 60.717 17.2794444C60.717 17.2794444 58.636 17.2264444 57.83 17.2264444 57.102 17.2264444 55.152 17.2794444 55.152 17.2794444L55.126 17.2264444 55.126 16.6804444C55.126 16.5764444 55.178 16.5504444 55.282 16.5254444L55.828 16.4474444C56.634 16.3434444 56.894 16.1094444 56.894 15.6154444L56.891 6.88044444 56.891 6.88044444 56.891 6.88044444zM58.893 11.4054444C59.413 11.6144444 60.063 11.6394444 60.583 11.6394444 62.144 11.6394444 62.895 10.7014444 62.895 8.70144444 62.895 6.46544444 61.881 5.97144444 60.453 5.97144444 59.204 5.97144444 58.892 6.20544444 58.892 6.88144444L58.893 11.4054444 58.893 11.4054444zM69.453 17.2294444C68.673 17.2294444 66.88 17.2824444 66.88 17.2824444L66.853 17.2294444 66.853 16.6574444C66.853 16.6064444 66.88 16.5284444 67.009 16.5284444L67.609 16.4754444C68.416 16.3974444 68.65 15.8774444 68.65 15.3584444L68.65 6.77844444C68.65 6.17844444 68.338 6.07544444 67.609 6.02444444L67.009 5.97044444C66.853 5.94644444 66.853 5.89344444 66.853 5.86644444L66.853 5.26744444 66.88 5.21544444C66.88 5.21544444 68.907 5.26744444 69.687 5.26744444L73.509 5.26744444C74.289 5.26744444 76.136 5.21544444 76.136 5.21544444L76.19 5.26744444C76.214 6.38544444 76.396 7.40144444 76.58 8.38844444L75.932 8.49244444C75.647 7.52944444 75.153 6.15244444 73.489 6.15244444L71.409 6.15244444C70.915 6.15244444 70.655 6.33444444 70.655 6.77544444L70.655 10.5464444 72.604 10.5464444C73.333 10.5464444 73.514 10.2344444 73.619 9.71444444L73.774 9.16844444C73.774 9.09044444 73.827 9.03744444 73.93 9.03744444L74.37 9.03744444C74.424 9.03744444 74.424 9.06444444 74.424 9.11544444 74.37 9.68644444 74.268 10.4164444 74.268 11.0404444 74.268 11.6894444 74.372 12.2364444 74.424 12.8344444L74.37 12.8874444 73.93 12.8874444C73.801 12.8874444 73.746 12.8344444 73.746 12.7564444L73.616 12.1854444C73.512 11.6644444 73.278 11.3784444 72.599 11.3784444L70.651 11.3784444 70.651 15.3574444C70.651 15.8494444 70.934 16.3434444 71.405 16.3434444L73.875 16.3434444C75.201 16.3434444 75.931 15.5114444 76.241 14.1574444L76.889 14.2354444 76.368 17.2244444 76.316 17.2764444C76.316 17.2764444 74.782 17.2244444 74.002 17.2244444L69.453 17.2294444 69.453 17.2294444 69.453 17.2294444zM79.231 16.5284444L79.829 16.4754444C80.61 16.3974444 80.87 16.1634444 80.87 15.3584444L80.87 6.77844444C80.87 6.10044444 80.686 6.10044444 79.829 6.02444444L79.259 5.97044444C79.155 5.97044444 79.075 5.91844444 79.075 5.84044444L79.075 5.26844444 79.1 5.21644444C79.1 5.21644444 81.389 5.26844444 81.858 5.26844444 82.35 5.26844444 84.614 5.21644444 85.29 5.21644444 89.632 5.21644444 91.765 7.92044444 91.765 11.3784444 91.765 15.9294444 88.54 17.2794444 85.656 17.2794444 83.576 17.2794444 82.667 17.2264444 81.861 17.2264444 81.08 17.2264444 79.103 17.2794444 79.103 17.2794444L79.078 17.2264444 79.078 16.6804444C79.075 16.6064444 79.128 16.5284444 79.231 16.5284444zM85.03 16.5284444C87.889 16.5284444 89.503 15.4644444 89.503 11.8214444 89.503 9.11844444 88.904 5.97044444 84.536 5.97044444 83.522 5.97044444 82.872 6.12644444 82.872 6.77844444L82.872 15.3584444C82.872 16.0844444 83.053 16.5284444 85.03 16.5284444zM97.903 15.4874444C97.903 16.0594444 98.163 16.3974444 98.995 16.4754444L99.541 16.5284444C99.619 16.5284444 99.697 16.5794444 99.697 16.6834444L99.697 17.2294444 99.671 17.2824444C99.671 17.2824444 97.695 17.2294444 96.89 17.2294444 96.161 17.2294444 94.134 17.2824444 94.134 17.2824444L94.081 17.2294444 94.081 16.6834444C94.081 16.5794444 94.159 16.5284444 94.263 16.5284444L94.784 16.4754444C95.641 16.3974444 95.902 15.9814444 95.902 15.4874444L95.902 6.82944444C95.902 6.25944444 95.589 6.10044444 94.784 6.02444444L94.263 5.97044444C94.159 5.97044444 94.081 5.94644444 94.081 5.86644444L94.081 5.26744444 94.107 5.21544444C94.107 5.21544444 96.161 5.26744444 96.965 5.26744444 97.666 5.26744444 99.67 5.21544444 99.67 5.21544444L99.694 5.26744444 99.694 5.83944444C99.694 5.91744444 99.64 5.96944444 99.538 5.96944444L98.992 6.02244444C98.185 6.09944444 97.9 6.30844444 97.9 6.82944444L97.903 15.4874444 97.903 15.4874444 97.903 15.4874444zM105.913 16.4754444L106.667 16.5284444C106.771 16.5284444 106.875 16.6064444 106.875 16.7354444L106.875 17.2294444 106.823 17.2824444C106.823 17.2824444 103.989 17.2294444 103.365 17.2294444 102.688 17.2294444 101.024 17.2824444 101.024 17.2824444L100.971 17.2294444 100.971 16.7354444C100.971 16.6064444 101.049 16.5284444 101.18 16.5284444 102.325 16.4504444 102.973 16.2414444 103.701 14.5774444L109.472 1.05644444C109.757.380444444 109.966.119444444 110.358.119444444 110.72.119444444 110.851.380444444 111.058.900444444L116.388 14.9924444C116.753 16.0074444 117.274 16.3964444 118.314 16.5004444L118.599 16.5254444C118.73 16.5254444 118.86 16.6024444 118.86 16.7344444L118.86 17.2264444 118.782 17.2794444C118.782 17.2794444 116.78 17.2264444 115.765 17.2264444 114.855 17.2264444 112.306 17.2794444 112.306 17.2794444L112.282 17.2264444 112.282 16.7344444C112.282 16.6024444 112.334 16.5254444 112.467 16.5254444L113.195 16.4724444C114.182 16.3954444 114.548 16.0814444 114.287 15.3554444L112.701 10.9594444 107.291 10.9594444C106.667 10.9594444 106.511 11.0634444 106.382 11.3994444L104.873 15.1704444C104.613 15.8244444 104.951 16.3974444 105.913 16.4754444zM112.283 9.86944444L109.761 2.92844444 109.709 2.92844444 107.109 9.53244444C107.005 9.79444444 107.186 9.87044444 107.758 9.87044444L112.283 9.87044444 112.283 9.86944444z"/>
  </g>
</svg>
