<?xml version="1.0" encoding="UTF-8"?>
<svg xmlns="http://www.w3.org/2000/svg" xmlns:xlink="http://www.w3.org/1999/xlink" width="20" height="20" viewBox="0 0 20 20">
	<title>
		Artboard Copy 5
	</title>
	<defs>
		<path id="path-1" d="M10.0198777,-0.06 L12.7498777,4.48 C12.7498777,4.48 12.3667635,4.2984083 11.951734,4.09675555 L11.6399652,3.94427844 L11.6399652,3.94427844 L11.3491531,3.79942194 C11.1246874,3.68608997 10.9563483,3.59647059 10.9298777,3.57 C11.2042977,4.72106 12.0154977,5.66993 13.1098777,6.12 C16.0051977,7.48548 17.6709677,10.580008 17.2163977,13.748722 C16.7618177,16.917436 14.2932577,19.4188647 11.1308377,19.9153151 C7.96841172,20.4117655 4.85211972,18.787069 3.44846272,15.910066 C2.04480672,13.033064 2.68223772,9.57697 5.01987772,7.39 L5.01987772,7.39 L6.37987772,8.66 L7.01987772,9.3 L7.46987772,8.85 L7.74987772,10.380001 L6.20987772,10.12 L6.65987772,9.67 L6.01987772,9.03 C5.12366772,9.963267 4.60679672,11.196628 4.56987672,12.490001 L4.56987672,12.490001 L5.47987672,12.490001 L5.47987672,11.760002 L6.73987672,12.670001 L5.47987672,13.580001 L5.47987672,12.850001 L4.56987672,12.85 C4.65038772,14.130597 5.16137272,15.346386 6.01987772,16.300001 L6.01987772,16.300001 L6.64987772,15.650001 L6.19987772,15.200001 L7.73987772,14.94 L7.46987772,16.480001 L7.01987772,16.03 L6.38987872,16.67 C7.32061172,17.563926 8.54998572,18.080621 9.83987772,18.12 L9.83987772,18.12 L9.83987772,17.21 L9.10987772,17.21 L10.0198777,15.94 L10.9298777,17.21 L10.1998777,17.21 L10.1998777,18.12 C11.4804777,18.039489 12.6962677,17.528505 13.6498777,16.67 L13.6498777,16.67 L13.0098777,16.03 L12.5598777,16.480001 L12.2998777,14.94 L13.8298777,15.21 L13.3798777,15.66 L14.0198777,16.300001 C14.9160877,15.366734 15.4329577,14.133374 15.4698777,12.840002 L15.4698777,12.840002 L14.5598777,12.840002 L14.5598777,13.570001 L13.2998777,12.660001 L14.5598777,11.750001 L14.5598777,12.480001 L15.4698777,12.48 C15.3893677,11.199404 14.8783777,9.983614 14.0198777,9.03 L14.0198777,9.03 L13.3998777,9.68 L13.8498777,10.130001 L12.3098777,10.390001 L12.5698777,8.85 L13.0198777,9.3 L13.6598777,8.67 C13.0478677,8.19063 12.3754277,7.79389 11.6598777,7.49 C10.8189677,7.02392 10.1259577,6.33091 9.65987772,5.49 C9.35256572,4.89576 9.16565572,4.24667 9.10987772,3.58 L9.10987772,3.58 L7.28987772,4.49 L10.0198777,-0.06 Z M10.0198777,10.14 C11.4005877,10.14 12.5198777,11.259288 12.5198777,12.64 C12.5198777,14.020712 11.4005877,15.14 10.0198777,15.14 C8.63916572,15.14 7.51987772,14.020712 7.51987772,12.64 C7.51987772,11.259288 8.63916572,10.14 10.0198777,10.14 Z"/>
	</defs>
	<g id="Artboard-Copy-5" fill="none" fill-rule="evenodd" stroke="none" stroke-width="1">
		<g id="Group">
			<mask id="mask-2" fill="#fff">
				<use xlink:href="#path-1"/>
			</mask>
			<use id="Mask-2" fill="#000" xlink:href="#path-1"/>
			<g id="🎨-Color/Base10-#202122" fill="#202122" mask="url(#mask-2)">
				<rect id="Color" width="20" height="20" x="0" y="0"/>
			</g>
		</g>
	</g>
</svg>
