<?xml version="1.0" encoding="UTF-8"?>
<svg xmlns="http://www.w3.org/2000/svg" xmlns:xlink="http://www.w3.org/1999/xlink" width="20" height="20" viewBox="0 0 20 20">
	<title>
		editsource
	</title>
	<defs>
		<path id="path-1" d="M1,3 L1,17 L4,17 L4,15 L3,15 L3,5 L4,5 L4,3 L1,3 Z M5,3 L5,17 L9,17 L9,15 L7,15 L7,5 L9,5 L9,3 L5,3 Z M17,3 L16,3 L16,5 L17,5 L17,15 L16,15 L16,17 L19,17 L19,3 L17,3 Z M11,3 L11,5 L13,5 L13,15 L11,15 L11,17 L15,17 L15,3 L11,3 Z"/>
	</defs>
	<g id="editsource" fill="none" fill-rule="evenodd" stroke="none" stroke-width="1">
		<g id="Group">
			<mask id="mask-2" fill="#fff">
				<use xlink:href="#path-1"/>
			</mask>
			<use id="Mask" fill="#000" xlink:href="#path-1"/>
			<g id="🎨-Color/Base10-(#202122)" fill="#202122" mask="url(#mask-2)">
				<rect id="Color-mask" width="20" height="20" x="0" y="0"/>
			</g>
		</g>
	</g>
</svg>
