<?xml version="1.0" encoding="UTF-8"?>
<svg xmlns="http://www.w3.org/2000/svg" width="20" height="20" viewBox="0 0 20 20">
	<title>
		languages
	</title>
	<g id="languages" fill="none" fill-rule="evenodd" stroke="none" stroke-width="1">
		<path id="Shape" fill="#000" fill-rule="nonzero" d="M18.3017391,17 L20,17 L16.0373913,4.5 L13.6791304,4.5 L9.52782609,17 L11.226087,17 L12.3582609,13.625 L17.0747826,13.625 L18.3017391,17 Z M14.7173913,6.21833333 L16.6973913,12.0325 L12.7356522,12.0325 L14.7173913,6.22 L14.7173913,6.21833333 L14.7173913,6.21833333 Z M5.84869565,3.66666667 C5.20695652,3.66666667 4.62173913,3.51083333 4.34,2.9375 L3.86695652,2 L5.75391304,2 L6.6973913,3.66666667 L5.84869565,3.66666667 Z M9.43652174,11.9383333 L8.96347826,13.3425 C7.75972842,12.9895188 6.63856582,12.416782 5.66173913,11.6558333 C4.05478261,12.8741667 2.35913043,13.6241667 0.472173913,14.1875 L0,12.7808333 C1.60173913,12.2183333 3.20608696,11.6558333 4.52869565,10.6241667 C3.324363,9.35611246 2.42286584,7.85176256 1.88695652,6.21583333 L0.0939130435,6.21583333 L0.0939130435,4.5 L11.7913043,4.5 L11.3191304,6.21833333 L9.43217391,6.21833333 C9.1,7.64333333 8.07913043,9.38666667 6.79043478,10.6266667 C7.54869565,11.1883333 8.39565217,11.6575 9.43565217,11.9383333 L9.43652174,11.9383333 Z M7.92695652,6.21833333 L3.49130435,6.21833333 C3.86869565,7.53166667 4.7173913,8.75 5.66173913,9.6875 C6.66,8.61583333 7.40521739,7.59083333 7.92521739,6.21916667 L7.92695652,6.21833333 Z"/>
	</g>
</svg>
