<?xml version="1.0" encoding="UTF-8"?>
<svg xmlns="http://www.w3.org/2000/svg" width="115" height="15" viewBox="0 0 115 15">
	<title>
		languages
	</title>
	<g id="Prototype-assets" fill="none" fill-rule="evenodd" stroke="none" stroke-width="1">
		<g id="languages">
			<polyline id="Path-Copy-4" stroke="#54595D" stroke-linecap="square" stroke-width="1.5" points="108 10 111 7 111 7 114 10" transform="rotate(-180 111 8.5)"/>
			<path id="Shape" fill="#54595D" fill-rule="nonzero" d="M15.5564783,13 L17,13 L13.6317826,2.16666667 L11.6272609,2.16666667 L8.09865217,13 L9.54217391,13 L10.5045217,10.075 L14.5135652,10.075 L15.5564783,13 Z M12.5097826,3.65588889 L14.1927826,8.69483333 L10.8253043,8.69483333 L12.5097826,3.65733333 L12.5097826,3.65588889 L12.5097826,3.65588889 Z M4.9713913,1.44444444 C4.42591304,1.44444444 3.92847826,1.30938889 3.689,0.8125 L3.28691304,0 L4.89082609,0 L5.69278261,1.44444444 L4.9713913,1.44444444 Z M8.02104348,8.61322222 L7.61895652,9.83016667 C6.59576916,9.52424962 5.64278095,9.02787771 4.81247826,8.36838889 C3.44656522,9.42427778 2.00526087,10.0742778 0.401347826,10.5625 L0,9.34338889 C1.36147826,8.85588889 2.72517391,8.36838889 3.8493913,7.47427778 C2.82570855,6.37529746 2.05943596,5.07152755 1.60391304,3.65372222 L0.079826087,3.65372222 L0.079826087,2.16666667 L10.0226087,2.16666667 L9.62126087,3.65588889 L8.01734783,3.65588889 C7.735,4.89088889 6.86726087,6.40177778 5.77186957,7.47644444 C6.4163913,7.96322222 7.13630435,8.36983333 8.02030435,8.61322222 L8.02104348,8.61322222 Z M6.73791304,3.65588889 L2.9676087,3.65588889 C3.2883913,4.79411111 4.00978261,5.85 4.81247826,6.6625 C5.661,5.73372222 6.29443478,4.84538889 6.73643478,3.65661111 L6.73791304,3.65588889 Z"/>
			<path id="9languages" fill="#54595D" fill-rule="nonzero" d="M26.4213867,12.2348633 C28.8081055,12.2348633 30.2426758,10.394043 30.2426758,7.34716797 C30.2426758,4.37011719 28.7763672,2.60546875 26.453125,2.60546875 C24.402832,2.60546875 22.9492188,3.95751953 22.9492188,5.86181641 C22.9492188,7.60742188 24.2250977,8.88330078 25.9643555,8.88330078 C27.0307617,8.88330078 27.8813477,8.40087891 28.300293,7.54394531 L28.4145508,7.54394531 C28.4208984,9.48632812 27.690918,10.6606445 26.4467773,10.6606445 C25.7231445,10.6606445 25.1328125,10.2734375 24.9677734,9.67041016 L23.0698242,9.67041016 C23.3237305,11.2001953 24.6821289,12.2348633 26.4213867,12.2348633 Z M26.4658203,7.41699219 C25.4882812,7.41699219 24.809082,6.75048828 24.809082,5.79833984 C24.809082,4.88427734 25.5136719,4.17333984 26.472168,4.17333984 C27.4306641,4.17333984 28.1289062,4.89697266 28.1289062,5.83007812 C28.1289062,6.74414062 27.4433594,7.41699219 26.4658203,7.41699219 Z M35.3779297,12 L37.2250977,12 L37.2250977,2.32617188 L35.3779297,2.32617188 L35.3779297,12 Z M41.668457,10.7177734 C41.0273438,10.7177734 40.5766602,10.4003906 40.5766602,9.87988281 C40.5766602,9.37841797 40.9638672,9.09277344 41.7573242,9.03564453 L43.1728516,8.94677734 L43.1728516,9.4609375 C43.1728516,10.171875 42.5253906,10.7177734 41.668457,10.7177734 Z M41.059082,12.1079102 C41.9667969,12.1079102 42.7285156,11.7270508 43.090332,11.0859375 L43.2045898,11.0859375 L43.2045898,12 L44.9946289,12 L44.9946289,7.22021484 C44.9946289,5.72216797 43.9472656,4.84619141 42.09375,4.84619141 C40.3354492,4.84619141 39.1484375,5.65869141 39.027832,6.95361328 L40.7290039,6.95361328 C40.8813477,6.53466797 41.3256836,6.30615234 41.9921875,6.30615234 C42.7539062,6.30615234 43.1728516,6.63623047 43.1728516,7.22021484 L43.1728516,7.79150391 L41.4780273,7.89306641 C39.7387695,7.99462891 38.7675781,8.73095703 38.7675781,10.0004883 C38.7675781,11.2827148 39.7133789,12.1079102 41.059082,12.1079102 Z M46.8100586,12 L48.6572266,12 L48.6572266,7.96289062 C48.6572266,7.04248047 49.184082,6.43945312 50.0410156,6.43945312 C50.9169922,6.43945312 51.3295898,6.94726562 51.3295898,7.91210938 L51.3295898,12 L53.1767578,12 L53.1767578,7.47412109 C53.1767578,5.79833984 52.3388672,4.84619141 50.7836914,4.84619141 C49.7490234,4.84619141 49.0380859,5.33496094 48.7143555,6.12207031 L48.6000977,6.12207031 L48.6000977,4.99853516 L46.8100586,4.99853516 L46.8100586,12 Z M58.0771484,10.4384766 C57.0742188,10.4384766 56.5029297,9.67041016 56.5029297,8.43261719 C56.5029297,7.20751953 57.0805664,6.43310547 58.0771484,6.43310547 C59.0737305,6.43310547 59.6767578,7.20751953 59.6767578,8.43896484 C59.6767578,9.67041016 59.0800781,10.4384766 58.0771484,10.4384766 Z M58.0517578,14.6533203 C60.1655273,14.6533203 61.5048828,13.6186523 61.5048828,11.9746094 L61.5048828,4.99853516 L59.7148438,4.99853516 L59.7148438,6.12207031 L59.6005859,6.12207031 C59.2260742,5.35400391 58.4199219,4.88427734 57.4741211,4.88427734 C55.6967773,4.88427734 54.6049805,6.26806641 54.6049805,8.43896484 C54.6049805,10.5463867 55.6904297,11.8984375 57.4360352,11.8984375 C58.4199219,11.8984375 59.15625,11.5048828 59.543457,10.7685547 L59.6577148,10.7685547 L59.6577148,12.0634766 C59.6577148,12.8505859 59.0800781,13.3076172 58.0898438,13.3076172 C57.2900391,13.3076172 56.7695312,13.034668 56.6743164,12.6030273 L54.8461914,12.6030273 C54.9604492,13.8344727 56.1918945,14.6533203 58.0517578,14.6533203 Z M69.6933594,4.99853516 L67.8461914,4.99853516 L67.8461914,9.03564453 C67.8461914,9.96875 67.3510742,10.5463867 66.4306641,10.5463867 C65.5800781,10.5463867 65.1420898,10.0512695 65.1420898,9.08642578 L65.1420898,4.99853516 L63.2949219,4.99853516 L63.2949219,9.5625 C63.2949219,11.1875 64.234375,12.1523438 65.7451172,12.1523438 C66.8051758,12.1523438 67.4589844,11.6889648 67.7890625,10.8764648 L67.9033203,10.8764648 L67.9033203,12 L69.6933594,12 L69.6933594,4.99853516 Z M74.0732422,10.7177734 C73.4321289,10.7177734 72.9814453,10.4003906 72.9814453,9.87988281 C72.9814453,9.37841797 73.3686523,9.09277344 74.1621094,9.03564453 L75.5776367,8.94677734 L75.5776367,9.4609375 C75.5776367,10.171875 74.9301758,10.7177734 74.0732422,10.7177734 Z M73.4638672,12.1079102 C74.371582,12.1079102 75.1333008,11.7270508 75.4951172,11.0859375 L75.609375,11.0859375 L75.609375,12 L77.3994141,12 L77.3994141,7.22021484 C77.3994141,5.72216797 76.3520508,4.84619141 74.4985352,4.84619141 C72.7402344,4.84619141 71.5532227,5.65869141 71.4326172,6.95361328 L73.1337891,6.95361328 C73.2861328,6.53466797 73.7304688,6.30615234 74.3969727,6.30615234 C75.1586914,6.30615234 75.5776367,6.63623047 75.5776367,7.22021484 L75.5776367,7.79150391 L73.8828125,7.89306641 C72.1435547,7.99462891 71.1723633,8.73095703 71.1723633,10.0004883 C71.1723633,11.2827148 72.1181641,12.1079102 73.4638672,12.1079102 Z M82.3251953,10.4384766 C81.3222656,10.4384766 80.7509766,9.67041016 80.7509766,8.43261719 C80.7509766,7.20751953 81.3286133,6.43310547 82.3251953,6.43310547 C83.3217773,6.43310547 83.9248047,7.20751953 83.9248047,8.43896484 C83.9248047,9.67041016 83.328125,10.4384766 82.3251953,10.4384766 Z M82.2998047,14.6533203 C84.4135742,14.6533203 85.7529297,13.6186523 85.7529297,11.9746094 L85.7529297,4.99853516 L83.9628906,4.99853516 L83.9628906,6.12207031 L83.8486328,6.12207031 C83.4741211,5.35400391 82.6679688,4.88427734 81.722168,4.88427734 C79.9448242,4.88427734 78.8530273,6.26806641 78.8530273,8.43896484 C78.8530273,10.5463867 79.9384766,11.8984375 81.684082,11.8984375 C82.6679688,11.8984375 83.4042969,11.5048828 83.7915039,10.7685547 L83.9057617,10.7685547 L83.9057617,12.0634766 C83.9057617,12.8505859 83.328125,13.3076172 82.3378906,13.3076172 C81.5380859,13.3076172 81.0175781,13.034668 80.9223633,12.6030273 L79.0942383,12.6030273 C79.2084961,13.8344727 80.4399414,14.6533203 82.2998047,14.6533203 Z M90.6342773,6.26171875 C91.4975586,6.26171875 92.0561523,6.83935547 92.0942383,7.76611328 L89.1108398,7.76611328 C89.1743164,6.85839844 89.7773438,6.26171875 90.6342773,6.26171875 Z M92.1323242,10.0068359 C91.9355469,10.4702148 91.434082,10.7304688 90.7041016,10.7304688 C89.7392578,10.7304688 89.1298828,10.0830078 89.1044922,9.04199219 L89.1044922,8.94677734 L93.909668,8.94677734 L93.909668,8.38183594 C93.909668,6.16015625 92.690918,4.84619141 90.6279297,4.84619141 C88.5458984,4.84619141 87.2636719,6.25537109 87.2636719,8.53417969 C87.2636719,10.8066406 88.5205078,12.1523438 90.6533203,12.1523438 C92.3671875,12.1523438 93.5795898,11.3208008 93.8525391,10.0068359 L92.1323242,10.0068359 Z M95.2617188,7.05517578 C95.2617188,5.72851562 96.4296875,4.84619141 98.175293,4.84619141 C99.9526367,4.84619141 101,5.58886719 101.101562,6.92822266 L99.394043,6.92822266 C99.2988281,6.47753906 98.8735352,6.19824219 98.1879883,6.19824219 C97.527832,6.19824219 97.0390625,6.49658203 97.0390625,6.94091797 C97.0390625,7.28369141 97.3374023,7.49316406 97.9848633,7.63916016 L99.2988281,7.92480469 C100.657227,8.22314453 101.266602,8.79443359 101.266602,9.84179688 C101.266602,11.2382812 100.016113,12.1523438 98.1816406,12.1523438 C96.3344727,12.1523438 95.2172852,11.3969727 95.090332,10.0512695 L96.8930664,10.0512695 C97.0327148,10.5273438 97.4833984,10.800293 98.2197266,10.800293 C98.9370117,10.800293 99.4321289,10.5019531 99.4321289,10.0512695 C99.4321289,9.70849609 99.1655273,9.49902344 98.5498047,9.36572266 L97.2802734,9.08007812 C95.921875,8.78173828 95.2617188,8.13427734 95.2617188,7.05517578 Z"/>
		</g>
	</g>
</svg>
