<?xml version="1.0" encoding="UTF-8"?>
<svg xmlns="http://www.w3.org/2000/svg" width="18" height="18" viewBox="0 0 18 18">
	<title>
		search
	</title>
	<g id="Page-1" fill="none" fill-rule="evenodd" stroke="none" stroke-width="1">
		<g id="search" fill="#222" fill-rule="nonzero">
			<path id="Shape" d="M12.864494,11.3207547 L12.051458,11.3207547 L11.7632933,11.0428816 C12.7718696,9.86963979 13.3790738,8.3464837 13.3790738,6.68953688 C13.3790738,2.9948542 10.3842196,0 6.68953688,0 C2.9948542,0 0,2.9948542 0,6.68953688 C0,10.3842196 2.9948542,13.3790738 6.68953688,13.3790738 C8.3464837,13.3790738 9.86963979,12.7718696 11.0428816,11.7632933 L11.3207547,12.051458 L11.3207547,12.864494 L16.4665523,18 L18,16.4665523 L12.864494,11.3207547 Z M6.68953688,11.3207547 C4.12692967,11.3207547 2.05831904,9.25214408 2.05831904,6.68953688 C2.05831904,4.12692967 4.12692967,2.05831904 6.68953688,2.05831904 C9.25214408,2.05831904 11.3207547,4.12692967 11.3207547,6.68953688 C11.3207547,9.25214408 9.25214408,11.3207547 6.68953688,11.3207547 Z"/>
		</g>
	</g>
</svg>
