<svg xmlns="http://www.w3.org/2000/svg" width="191" height="26" viewBox="0 0 191 26">
  <g fill="#54595D" fill-rule="evenodd" transform="translate(1 4)">
    <path fill-rule="nonzero" d="M4.29736328,10.2348633 C6.50634766,10.2348633 8.11865234,8.87011719 8.27734375,6.88964844 L6.41113281,6.88964844 C6.22705078,7.89892578 5.40185547,8.54638672 4.30371094,8.54638672 C2.85644531,8.54638672 1.96142578,7.34667969 1.96142578,5.41699219 C1.96142578,3.48730469 2.85644531,2.29394531 4.29736328,2.29394531 C5.38916016,2.29394531 6.22070312,2.98583984 6.40478516,4.03955078 L8.27099609,4.03955078 C8.13134766,2.04638672 6.46826172,0.60546875 4.29736328,0.60546875 C1.63769531,0.60546875 0,2.43994141 0,5.41699219 C0,8.40039062 1.64404297,10.2348633 4.29736328,10.2348633 Z M9.85791016,10 L11.7050781,10 L11.7050781,6.12158203 C11.7050781,5.13769531 12.3969727,4.54101562 13.40625,4.54101562 C13.7045898,4.54101562 14.1362305,4.59814453 14.2822266,4.65527344 L14.2822266,2.97314453 C14.1235352,2.91601562 13.8125,2.88427734 13.5585938,2.88427734 C12.6699219,2.88427734 11.9462891,3.41748047 11.762207,4.11572266 L11.6479492,4.11572266 L11.6479492,2.99853516 L9.85791016,2.99853516 L9.85791016,10 Z M18.3828125,4.26171875 C19.2460938,4.26171875 19.8046875,4.83935547 19.8427734,5.76611328 L16.859375,5.76611328 C16.9228516,4.85839844 17.5258789,4.26171875 18.3828125,4.26171875 Z M19.8808594,8.00683594 C19.684082,8.47021484 19.1826172,8.73046875 18.4526367,8.73046875 C17.487793,8.73046875 16.878418,8.08300781 16.8530273,7.04199219 L16.8530273,6.94677734 L21.6582031,6.94677734 L21.6582031,6.38183594 C21.6582031,4.16015625 20.4394531,2.84619141 18.3764648,2.84619141 C16.2944336,2.84619141 15.012207,4.25537109 15.012207,6.53417969 C15.012207,8.80664062 16.269043,10.1523438 18.4018555,10.1523438 C20.1157227,10.1523438 21.328125,9.32080078 21.6010742,8.00683594 L19.8808594,8.00683594 Z M25.6953125,8.71777344 C25.0541992,8.71777344 24.6035156,8.40039062 24.6035156,7.87988281 C24.6035156,7.37841797 24.9907227,7.09277344 25.7841797,7.03564453 L27.199707,6.94677734 L27.199707,7.4609375 C27.199707,8.171875 26.5522461,8.71777344 25.6953125,8.71777344 Z M25.0859375,10.1079102 C25.9936523,10.1079102 26.7553711,9.72705078 27.1171875,9.0859375 L27.2314453,9.0859375 L27.2314453,10 L29.0214844,10 L29.0214844,5.22021484 C29.0214844,3.72216797 27.9741211,2.84619141 26.1206055,2.84619141 C24.3623047,2.84619141 23.175293,3.65869141 23.0546875,4.95361328 L24.7558594,4.95361328 C24.9082031,4.53466797 25.3525391,4.30615234 26.019043,4.30615234 C26.7807617,4.30615234 27.199707,4.63623047 27.199707,5.22021484 L27.199707,5.79150391 L25.5048828,5.89306641 C23.765625,5.99462891 22.7944336,6.73095703 22.7944336,8.00048828 C22.7944336,9.28271484 23.7402344,10.1079102 25.0859375,10.1079102 Z M31.3637695,1.33544922 L31.3637695,3.06835938 L30.2719727,3.06835938 L30.2719727,4.52197266 L31.3637695,4.52197266 L31.3637695,8.10839844 C31.3637695,9.47314453 32.0366211,10.0253906 33.737793,10.0253906 C34.0932617,10.0253906 34.4360352,9.98730469 34.6645508,9.94287109 L34.6645508,8.53369141 L34.465082,8.55085547 C34.3669727,8.55679687 34.2633789,8.55908203 34.1186523,8.55908203 C33.4902344,8.55908203 33.2109375,8.27978516 33.2109375,7.67041016 L33.2109375,4.52197266 L34.6645508,4.52197266 L34.6645508,3.06835938 L33.2109375,3.06835938 L33.2109375,1.33544922 L31.3637695,1.33544922 Z M39.1777344,4.26171875 C40.0410156,4.26171875 40.5996094,4.83935547 40.6376953,5.76611328 L37.6542969,5.76611328 C37.7177734,4.85839844 38.3208008,4.26171875 39.1777344,4.26171875 Z M40.6757812,8.00683594 C40.4790039,8.47021484 39.9775391,8.73046875 39.2475586,8.73046875 C38.2827148,8.73046875 37.6733398,8.08300781 37.6479492,7.04199219 L37.6479492,6.94677734 L42.453125,6.94677734 L42.453125,6.38183594 C42.453125,4.16015625 41.234375,2.84619141 39.1713867,2.84619141 C37.0893555,2.84619141 35.8071289,4.25537109 35.8071289,6.53417969 C35.8071289,8.80664062 37.0639648,10.1523438 39.1967773,10.1523438 C40.9106445,10.1523438 42.1230469,9.32080078 42.3959961,8.00683594 L40.6757812,8.00683594 Z M49.8417969,8.71777344 C49.2006836,8.71777344 48.75,8.40039062 48.75,7.87988281 C48.75,7.37841797 49.137207,7.09277344 49.9306641,7.03564453 L51.3461914,6.94677734 L51.3461914,7.4609375 C51.3461914,8.171875 50.6987305,8.71777344 49.8417969,8.71777344 Z M49.2324219,10.1079102 C50.1401367,10.1079102 50.9018555,9.72705078 51.2636719,9.0859375 L51.3779297,9.0859375 L51.3779297,10 L53.1679688,10 L53.1679688,5.22021484 C53.1679688,3.72216797 52.1206055,2.84619141 50.2670898,2.84619141 C48.5087891,2.84619141 47.3217773,3.65869141 47.2011719,4.95361328 L48.9023438,4.95361328 C49.0546875,4.53466797 49.4990234,4.30615234 50.1655273,4.30615234 C50.9272461,4.30615234 51.3461914,4.63623047 51.3461914,5.22021484 L51.3461914,5.79150391 L49.6513672,5.89306641 C47.9121094,5.99462891 46.940918,6.73095703 46.940918,8.00048828 C46.940918,9.28271484 47.8867188,10.1079102 49.2324219,10.1079102 Z M61.1787109,5.46777344 C61.0263672,3.87451172 59.9155273,2.84619141 58.0620117,2.84619141 C55.8720703,2.84619141 54.640625,4.16015625 54.640625,6.48339844 C54.640625,8.83203125 55.878418,10.1523438 58.0620117,10.1523438 C59.8837891,10.1523438 61.0263672,9.14306641 61.1787109,7.57519531 L59.4521484,7.57519531 C59.3125,8.26708984 58.8173828,8.63525391 58.0620117,8.63525391 C57.0717773,8.63525391 56.5068359,7.87988281 56.5068359,6.48339844 C56.5068359,5.10595703 57.0654297,4.36328125 58.0620117,4.36328125 C58.8491211,4.36328125 59.3251953,4.80126953 59.4521484,5.46777344 L61.1787109,5.46777344 Z M68.8149414,5.46777344 C68.6625977,3.87451172 67.5517578,2.84619141 65.6982422,2.84619141 C63.5083008,2.84619141 62.2768555,4.16015625 62.2768555,6.48339844 C62.2768555,8.83203125 63.5146484,10.1523438 65.6982422,10.1523438 C67.5200195,10.1523438 68.6625977,9.14306641 68.8149414,7.57519531 L67.0883789,7.57519531 C66.9487305,8.26708984 66.4536133,8.63525391 65.6982422,8.63525391 C64.7080078,8.63525391 64.1430664,7.87988281 64.1430664,6.48339844 C64.1430664,5.10595703 64.7016602,4.36328125 65.6982422,4.36328125 C66.4853516,4.36328125 66.9614258,4.80126953 67.0883789,5.46777344 L68.8149414,5.46777344 Z M73.3598633,10.1523438 C75.5117188,10.1523438 76.8066406,8.78759766 76.8066406,6.49609375 C76.8066406,4.22363281 75.4926758,2.84619141 73.3598633,2.84619141 C71.2270508,2.84619141 69.9130859,4.22998047 69.9130859,6.49609375 C69.9130859,8.78759766 71.2080078,10.1523438 73.3598633,10.1523438 Z M73.3598633,8.64160156 C72.3696289,8.64160156 71.8110352,7.86083984 71.8110352,6.49609375 C71.8110352,5.15039062 72.3759766,4.35693359 73.3598633,4.35693359 C74.3374023,4.35693359 74.9086914,5.15039062 74.9086914,6.49609375 C74.9086914,7.85449219 74.34375,8.64160156 73.3598633,8.64160156 Z M84.6459961,2.99853516 L82.7988281,2.99853516 L82.7988281,7.03564453 C82.7988281,7.96875 82.3037109,8.54638672 81.3833008,8.54638672 C80.5327148,8.54638672 80.0947266,8.05126953 80.0947266,7.08642578 L80.0947266,2.99853516 L78.2475586,2.99853516 L78.2475586,7.5625 C78.2475586,9.1875 79.1870117,10.1523438 80.6977539,10.1523438 C81.7578125,10.1523438 82.4116211,9.68896484 82.7416992,8.87646484 L82.855957,8.87646484 L82.855957,10 L84.6459961,10 L84.6459961,2.99853516 Z M86.4995117,10 L88.3466797,10 L88.3466797,5.96289062 C88.3466797,5.04248047 88.8735352,4.43945312 89.7304688,4.43945312 C90.6064453,4.43945312 91.019043,4.94726562 91.019043,5.91210938 L91.019043,10 L92.8662109,10 L92.8662109,5.47412109 C92.8662109,3.79833984 92.0283203,2.84619141 90.4731445,2.84619141 C89.4384766,2.84619141 88.7275391,3.33496094 88.4038086,4.12207031 L88.2895508,4.12207031 L88.2895508,2.99853516 L86.4995117,2.99853516 L86.4995117,10 Z M95.1831055,1.33544922 L97.0302734,1.33544922 L97.0302734,3.06835938 L98.4838867,3.06835938 L98.4838867,4.52197266 L97.0302734,4.52197266 L97.0302734,7.67041016 C97.0302734,8.27978516 97.3095703,8.55908203 97.9379883,8.55908203 L98.1831602,8.55562891 C98.2888867,8.55197266 98.3772461,8.54511719 98.4838867,8.53369141 L98.4838867,9.94287109 C98.2553711,9.98730469 97.9125977,10.0253906 97.5571289,10.0253906 C95.855957,10.0253906 95.1831055,9.47314453 95.1831055,8.10839844 L95.1831055,4.52197266 L94.0913086,4.52197266 L94.0913086,3.06835938 L95.1831055,3.06835938 L95.1831055,1.33544922 Z" transform="translate(54 3)"/>
    <path fill-rule="nonzero" d="M6.73120117,11.3305664 L2.65600586,11.3305664 L2.65600586,3.84033203 L0.739013672,3.84033203 L0.739013672,13 L6.73120117,13 L6.73120117,11.3305664 Z M11.072998,13.1523438 C13.2248535,13.1523438 14.5197754,11.7875977 14.5197754,9.49609375 C14.5197754,7.22363281 13.2058105,5.84619141 11.072998,5.84619141 C8.94018555,5.84619141 7.6262207,7.22998047 7.6262207,9.49609375 C7.6262207,11.7875977 8.92114258,13.1523438 11.072998,13.1523438 Z M11.072998,11.6416016 C10.0827637,11.6416016 9.52416992,10.8608398 9.52416992,9.49609375 C9.52416992,8.15039062 10.0891113,7.35693359 11.072998,7.35693359 C12.0505371,7.35693359 12.6218262,8.15039062 12.6218262,9.49609375 C12.6218262,10.8544922 12.0568848,11.6416016 11.072998,11.6416016 Z M19.1345215,11.4384766 C18.1315918,11.4384766 17.5603027,10.6704102 17.5603027,9.43261719 C17.5603027,8.20751953 18.1379395,7.43310547 19.1345215,7.43310547 C20.1311035,7.43310547 20.7341309,8.20751953 20.7341309,9.43896484 C20.7341309,10.6704102 20.1374512,11.4384766 19.1345215,11.4384766 Z M19.1091309,15.6533203 C21.2229004,15.6533203 22.5622559,14.6186523 22.5622559,12.9746094 L22.5622559,5.99853516 L20.7722168,5.99853516 L20.7722168,7.12207031 L20.657959,7.12207031 C20.2834473,6.35400391 19.4772949,5.88427734 18.5314941,5.88427734 C16.7541504,5.88427734 15.6623535,7.26806641 15.6623535,9.43896484 C15.6623535,11.5463867 16.7478027,12.8984375 18.4934082,12.8984375 C19.4772949,12.8984375 20.213623,12.5048828 20.6008301,11.7685547 L20.7150879,11.7685547 L20.7150879,13.0634766 C20.7150879,13.8505859 20.1374512,14.3076172 19.1472168,14.3076172 C18.3474121,14.3076172 17.8269043,14.034668 17.7316895,13.6030273 L15.9035645,13.6030273 C16.0178223,14.8344727 17.2492676,15.6533203 19.1091309,15.6533203 Z M24.4284668,13 L26.2756348,13 L26.2756348,5.99853516 L24.4284668,5.99853516 L24.4284668,13 Z M25.3552246,4.95117188 C25.9328613,4.95117188 26.4025879,4.48144531 26.4025879,3.89111328 C26.4025879,3.30078125 25.9328613,2.83740234 25.3552246,2.83740234 C24.7839355,2.83740234 24.3078613,3.30078125 24.3078613,3.89111328 C24.3078613,4.48144531 24.7839355,4.95117188 25.3552246,4.95117188 Z M28.1418457,13 L28.1418457,5.99853516 L29.9318848,5.99853516 L29.9318848,7.12207031 L30.0461426,7.12207031 C30.369873,6.33496094 31.0808105,5.84619141 32.1154785,5.84619141 C33.6706543,5.84619141 34.5085449,6.79833984 34.5085449,8.47412109 L34.5085449,13 L32.661377,13 L32.661377,8.91210938 C32.661377,7.94726562 32.2487793,7.43945312 31.3728027,7.43945312 C30.5158691,7.43945312 29.9890137,8.04248047 29.9890137,8.96289062 L29.9890137,13 L28.1418457,13 Z"/>
    <path d="M187.441409,9.87749901 C187.477409,9.58949904 187.504409,9.29699907 187.504409,9 C187.504409,8.70299913 187.477409,8.41049916 187.441409,8.12249919 L189.344909,6.63299934 C189.515909,6.49799935 189.565409,6.25499937 189.452909,6.05699939 L187.652909,2.93849971 C187.540409,2.74499973 187.306409,2.66399973 187.103909,2.74499973 L184.862909,3.64949964 C184.399409,3.29399967 183.890909,2.9924997 183.34191,2.76299972 L183.00441,0.377999962 C182.96391,0.166499983 182.77941,0 182.55441,0 L178.95441,0 C178.72941,0 178.54491,0.166499983 178.50891,0.377999962 L178.17141,2.76299972 C177.62241,2.9924997 177.11391,3.28949967 176.65041,3.64949964 L174.40941,2.74499973 C174.20691,2.66849973 173.97291,2.74499973 173.86041,2.93849971 L172.06041,6.05699939 C171.94791,6.25049937 171.99741,6.49349935 172.16841,6.63299934 L174.06741,8.12249919 C174.03141,8.41049916 174.00441,8.70299913 174.00441,9 C174.00441,9.29699907 174.03141,9.58949904 174.06741,9.87749901 L172.168411,11.3669989 C171.997411,11.5019988 171.947911,11.7449988 172.060411,11.9429988 L173.86041,15.0614985 C173.97291,15.2549985 174.206911,15.3359994 174.409411,15.2549985 L176.65041,14.3504986 C177.11391,14.7059985 177.62241,15.0074985 178.17141,15.2369985 L178.50891,17.622 C178.54491,17.8335005 178.72941,18 178.95441,18 L182.55441,18 C182.77941,18 182.96391,17.8335005 182.99991,17.622 L183.33741,15.2369985 C183.886409,15.007503 184.394909,14.7104985 184.858409,14.3504986 L187.099409,15.2549985 C187.301909,15.3314985 187.535909,15.2549985 187.648409,15.0614985 L189.448409,11.9429988 C189.560909,11.7494988 189.511409,11.5064988 189.340409,11.3669989 L187.441409,9.87749901 Z M180.75441,12.1499988 C179.01291,12.1499988 177.60441,10.7414989 177.60441,8.9999991 C177.60441,7.25849927 179.01291,5.84999942 180.75441,5.84999942 C182.49591,5.84999942 183.904409,7.25849927 183.904409,8.9999991 C183.904409,10.7414989 182.49591,12.1499988 180.75441,12.1499988 Z"/>
  </g>
</svg>
