<?xml version="1.0" encoding="UTF-8"?>
<svg xmlns="http://www.w3.org/2000/svg" width="24" height="16" viewBox="0 0 24 16">
	<title>
		Artboard Copy
	</title>
	<g id="Artboard-Copy" fill="none" fill-rule="evenodd" stroke="none" stroke-width="1">
		<path id="Path" fill="#000" fill-rule="nonzero" d="M12.065758,9.18229498 L10.8572284,11.7920009 L10.0089898,13.5901065 L9.51923457,14.6030023 L9.31140576,15.0213525 C9.27922388,15.0852847 9.24833646,15.1461708 9.218843,15.2037861 C8.60216303,16.3335501 8.09436017,16.1857906 7.69020832,15.2331544 C7.57795166,14.9540816 7.45623506,14.6581337 7.32659619,14.3480394 L6.91545045,13.3780461 L6.46599714,12.3395465 L5.74017242,10.6891617 L3.96702816,6.69247567 L3.24797647,5.05015245 L2.80529618,4.01971447 L2.40272961,3.05993253 L1.90600102,1.83512547 C1.72346374,1.4023827 1.57392756,1.11706909 1.43108079,0.988582516 C1.2516513,0.829809825 0.878856064,0.734362658 0.311824055,0.702241015 C0.133390019,0.681788051 0.0317476777,0.639758333 0.00634851977,0.573840067 L0,0.538879518 L0,0.060725922 L0.0505189809,0.0139200998 L0.826472189,0.0119429809 L5.44211367,0.0139200998 L5.49263265,0.060725922 L5.49263265,0.515935488 C5.49263265,0.620713227 5.44000871,0.68024024 5.33627302,0.697172084 L5.26791029,0.702241015 L4.70523336,0.727020568 C4.22268999,0.748129077 3.98141831,0.900477439 3.98141831,1.18223013 C3.98141831,1.31346999 4.03193729,1.52730835 4.14429847,1.81364985 L4.48540231,2.66149924 L5.11932336,4.169797 L5.98450318,6.17369721 L8.95492487,12.8754259 L9.09167453,12.9130541 L11.4960651,7.85849265 L11.0148799,6.73652104 L9.31004119,3.20273882 L8.62486995,1.7558139 L8.50416001,1.51027241 L8.39882897,1.30935706 L8.30369608,1.14800741 C8.15076153,0.909251406 8.01873291,0.814267369 7.79967821,0.757629605 L7.6569388,0.727405093 L7.48813239,0.701323254 C7.2825724,0.672872656 7.17630834,0.64533982 7.17630834,0.537961757 L7.17630834,0.0579726384 L7.23815054,0.0111668161 L11.5165856,0.00933129366 L11.6298178,0.0487950262 L11.6298178,0.526948622 C11.6298178,0.636162208 11.5557814,0.692145642 11.4050954,0.692145642 L11.0950134,0.738951464 C10.507077,0.787133928 10.4321151,0.989156117 10.6511214,1.5482878 L10.7347108,1.74817014 L12.5452566,5.65349383 L14.3003557,1.96599822 C14.5729217,1.33962618 14.5405697,1.1492797 14.4376208,1.00036525 L14.4127168,0.966556247 C14.3500036,0.888087663 14.154652,0.76575927 13.7460205,0.726690174 L13.6018001,0.716925195 L13.4023372,0.693981165 C13.3518182,0.693981165 13.3047833,0.67562594 13.2586194,0.639833252 C13.2284242,0.617195142 13.208294,0.5900702 13.1982289,0.557914566 L13.1906801,0.505840114 L13.1906801,0.0506305486 L13.2525223,0.00382472633 L14.3614911,0 L17.2844596,0.00382472633 L17.3341076,0.0515483098 L17.3341076,0.506757875 C17.3341076,0.632491163 17.2670393,0.694898926 17.1346447,0.694898926 C16.4848661,0.727020568 16.3516005,0.794934899 16.1138129,1.15561506 L15.946255,1.42111998 L15.7204358,1.79899967 L15.4622922,2.2505042 L13.1819699,6.74386313 L13.1181722,6.88413314 L15.9047688,12.8937811 L16.0737461,12.9424224 L20.4636713,1.96508046 C20.6160993,1.52271955 20.5925818,1.20884521 20.396603,1.0243752 L20.2820678,0.925697518 C20.1295492,0.805874613 19.9595267,0.733628449 19.5525876,0.716007434 L19.1405966,0.694898926 C19.0900777,0.694898926 19.0421717,0.67562594 18.9960078,0.638915491 C18.950715,0.604958326 18.9271975,0.559988026 18.9271975,0.505840114 L18.9271975,0.0487950262 L18.9899107,0.00198920389 L23.949481,0.00198920389 L24,0.0487950262 L24,0.505840114 C24,0.609088252 23.9534248,0.669634999 23.8612825,0.686949244 L23.8005371,0.692145642 C23.1507585,0.722431762 22.6690862,0.87110908 22.3572621,1.13634207 C22.0892378,1.36525794 21.8717679,1.66766963 21.7048527,2.05109047 L17.7844565,11.4760029 L16.2969253,15.0111021 C16.2658376,15.0841814 16.2358461,15.154577 16.2070117,15.2221413 C15.6783044,16.2830733 15.1583073,16.1857906 14.7010234,15.1918552 L14.3077798,14.3219853 L13.1279127,11.6360672 L12.065758,9.18229498 Z"/>
	</g>
</svg>
