<?xml version="1.0" encoding="UTF-8"?>
<svg width="69px" height="26px" viewBox="0 0 69 26" version="1.1" xmlns="http://www.w3.org/2000/svg" xmlns:xlink="http://www.w3.org/1999/xlink">
    <!-- Generator: Sketch 60 (88103) - https://sketch.com -->
    <title>edit</title>
    <desc>Created with Sketch.</desc>
    <g id="edit" stroke="none" stroke-width="1" fill="none" fill-rule="evenodd">
        <g>
            <rect id="Rectangle" stroke="#A2A9B1" fill="#EAECF0" x="0.5" y="0.5" width="68" height="25" rx="2"></rect>
            <path d="M36.3569336,15.3623047 L32.2055664,15.3623047 L32.2055664,13.1342773 L36.1220703,13.1342773 L36.1220703,11.6171875 L32.2055664,11.6171875 L32.2055664,9.47802734 L36.3569336,9.47802734 L36.3569336,7.84033203 L30.2885742,7.84033203 L30.2885742,17 L36.3569336,17 L36.3569336,15.3623047 Z M40.6987305,17.1079102 C41.6699219,17.1079102 42.4633789,16.6572266 42.8378906,15.9018555 L42.9521484,15.9018555 L42.9521484,17 L44.7421875,17 L44.7421875,7.32617188 L42.8950195,7.32617188 L42.8950195,11.1157227 L42.7871094,11.1157227 C42.425293,10.3413086 41.6445312,9.88427734 40.6987305,9.88427734 C38.9404297,9.88427734 37.8486328,11.2617188 37.8486328,13.4897461 C37.8486328,15.7241211 38.934082,17.1079102 40.6987305,17.1079102 Z M41.3271484,11.4331055 C42.3110352,11.4331055 42.9140625,12.2265625 42.9140625,13.5024414 C42.9140625,14.784668 42.3173828,15.5654297 41.3271484,15.5654297 C40.3369141,15.5654297 39.746582,14.7910156 39.746582,13.4960938 C39.746582,12.2138672 40.3432617,11.4331055 41.3271484,11.4331055 Z M46.671875,17 L48.519043,17 L48.519043,9.99853516 L46.671875,9.99853516 L46.671875,17 Z M47.5986328,8.95117188 C48.1762695,8.95117188 48.6459961,8.48144531 48.6459961,7.89111328 C48.6459961,7.30078125 48.1762695,6.83740234 47.5986328,6.83740234 C47.0273438,6.83740234 46.5512695,7.30078125 46.5512695,7.89111328 C46.5512695,8.48144531 47.0273438,8.95117188 47.5986328,8.95117188 Z M50.9121094,8.33544922 L52.7592773,8.33544922 L52.7592773,10.0683594 L54.2128906,10.0683594 L54.2128906,11.5219727 L52.7592773,11.5219727 L52.7592773,14.6704102 C52.7592773,15.2797852 53.0385742,15.559082 53.6669922,15.559082 L53.9121641,15.5556289 C54.0178906,15.5519727 54.10625,15.5451172 54.2128906,15.5336914 L54.2128906,16.9428711 C53.984375,16.9873047 53.6416016,17.0253906 53.2861328,17.0253906 C51.5849609,17.0253906 50.9121094,16.4731445 50.9121094,15.1083984 L50.9121094,11.5219727 L49.8203125,11.5219727 L49.8203125,10.0683594 L50.9121094,10.0683594 L50.9121094,8.33544922 Z" id="Edit" fill="#54595D" fill-rule="nonzero"></path>
            <path d="M21.6367993,11.2780728 L22.8223028,10.0559042 C23.0592324,9.8175569 23.0592324,9.43262268 22.8223028,9.19427536 L20.7812813,7.1776972 C20.5429339,6.9407676 20.1579997,6.9407676 19.9196524,7.1776972 L18.7219272,8.36320073 L21.6367993,11.2780728 Z M18.0863995,9.01095007 L12,15.0973496 L12,18 L14.9026504,18 L20.9890499,11.9136005 L18.0863995,9.01095007 Z" id="Fill-1" fill="#54595D"></path>
        </g>
    </g>
</svg>