<svg xmlns="http://www.w3.org/2000/svg" width="228" height="37" viewBox="0 0 228 37">
  <g fill="none" fill-rule="evenodd">
    <g transform="translate(63 6)">
      <path fill="#54595D" fill-rule="nonzero" d="M1.43823242,2.84033203 L1.43823242,12 L3.35522461,12 L3.35522461,9.15625 L5.16430664,9.15625 C7.09399414,9.15625 8.43334961,7.89306641 8.43334961,6.0078125 C8.43334961,4.10351562 7.14477539,2.84033203 5.25952148,2.84033203 L1.43823242,2.84033203 Z M3.35522461,4.41455078 L4.75170898,4.41455078 C5.85620117,4.41455078 6.48461914,4.97314453 6.48461914,6.01416016 C6.48461914,7.04248047 5.84350586,7.60107422 4.74536133,7.60107422 L3.35522461,7.60107422 L3.35522461,4.41455078 Z M12.286377,10.7177734 C11.6452637,10.7177734 11.1945801,10.4003906 11.1945801,9.87988281 C11.1945801,9.37841797 11.5817871,9.09277344 12.3752441,9.03564453 L13.7907715,8.94677734 L13.7907715,9.4609375 C13.7907715,10.171875 13.1433105,10.7177734 12.286377,10.7177734 Z M11.677002,12.1079102 C12.5847168,12.1079102 13.3464355,11.7270508 13.708252,11.0859375 L13.8225098,11.0859375 L13.8225098,12 L15.6125488,12 L15.6125488,7.22021484 C15.6125488,5.72216797 14.5651855,4.84619141 12.7116699,4.84619141 C10.9533691,4.84619141 9.76635742,5.65869141 9.64575195,6.95361328 L11.3469238,6.95361328 C11.4992676,6.53466797 11.9436035,6.30615234 12.6101074,6.30615234 C13.3718262,6.30615234 13.7907715,6.63623047 13.7907715,7.22021484 L13.7907715,7.79150391 L12.0959473,7.89306641 C10.3566895,7.99462891 9.38549805,8.73095703 9.38549805,10.0004883 C9.38549805,11.2827148 10.3312988,12.1079102 11.677002,12.1079102 Z M20.5383301,10.4384766 C19.5354004,10.4384766 18.9641113,9.67041016 18.9641113,8.43261719 C18.9641113,7.20751953 19.541748,6.43310547 20.5383301,6.43310547 C21.5349121,6.43310547 22.1379395,7.20751953 22.1379395,8.43896484 C22.1379395,9.67041016 21.5412598,10.4384766 20.5383301,10.4384766 Z M20.5129395,14.6533203 C22.626709,14.6533203 23.9660645,13.6186523 23.9660645,11.9746094 L23.9660645,4.99853516 L22.1760254,4.99853516 L22.1760254,6.12207031 L22.0617676,6.12207031 C21.6872559,5.35400391 20.8811035,4.88427734 19.9353027,4.88427734 C18.157959,4.88427734 17.0661621,6.26806641 17.0661621,8.43896484 C17.0661621,10.5463867 18.1516113,11.8984375 19.8972168,11.8984375 C20.8811035,11.8984375 21.6174316,11.5048828 22.0046387,10.7685547 L22.1188965,10.7685547 L22.1188965,12.0634766 C22.1188965,12.8505859 21.5412598,13.3076172 20.5510254,13.3076172 C19.7512207,13.3076172 19.2307129,13.034668 19.135498,12.6030273 L17.307373,12.6030273 C17.4216309,13.8344727 18.6530762,14.6533203 20.5129395,14.6533203 Z M28.8474121,6.26171875 C29.7106934,6.26171875 30.2692871,6.83935547 30.307373,7.76611328 L27.3239746,7.76611328 C27.3874512,6.85839844 27.9904785,6.26171875 28.8474121,6.26171875 Z M30.345459,10.0068359 C30.1486816,10.4702148 29.6472168,10.7304688 28.9172363,10.7304688 C27.9523926,10.7304688 27.3430176,10.0830078 27.317627,9.04199219 L27.317627,8.94677734 L32.1228027,8.94677734 L32.1228027,8.38183594 C32.1228027,6.16015625 30.9040527,4.84619141 28.8410645,4.84619141 C26.7590332,4.84619141 25.4768066,6.25537109 25.4768066,8.53417969 C25.4768066,10.8066406 26.7336426,12.1523438 28.8664551,12.1523438 C30.5803223,12.1523438 31.7927246,11.3208008 32.0656738,10.0068359 L30.345459,10.0068359 Z M37.5119629,3.33544922 L37.5119629,5.06835938 L36.420166,5.06835938 L36.420166,6.52197266 L37.5119629,6.52197266 L37.5119629,10.1083984 C37.5119629,11.4731445 38.1848145,12.0253906 39.8859863,12.0253906 C40.2414551,12.0253906 40.5842285,11.9873047 40.8127441,11.9428711 L40.8127441,10.5336914 L40.6132754,10.5508555 C40.515166,10.5567969 40.4115723,10.559082 40.2668457,10.559082 C39.6384277,10.559082 39.3591309,10.2797852 39.3591309,9.67041016 L39.3591309,6.52197266 L40.8127441,6.52197266 L40.8127441,5.06835938 L39.3591309,5.06835938 L39.3591309,3.33544922 L37.5119629,3.33544922 Z M45.4020996,12.1523438 C47.5539551,12.1523438 48.848877,10.7875977 48.848877,8.49609375 C48.848877,6.22363281 47.5349121,4.84619141 45.4020996,4.84619141 C43.2692871,4.84619141 41.9553223,6.22998047 41.9553223,8.49609375 C41.9553223,10.7875977 43.2502441,12.1523438 45.4020996,12.1523438 Z M45.4020996,10.6416016 C44.4118652,10.6416016 43.8532715,9.86083984 43.8532715,8.49609375 C43.8532715,7.15039062 44.4182129,6.35693359 45.4020996,6.35693359 C46.3796387,6.35693359 46.9509277,7.15039062 46.9509277,8.49609375 C46.9509277,9.85449219 46.3859863,10.6416016 45.4020996,10.6416016 Z M53.4572754,12.1523438 C55.6091309,12.1523438 56.9040527,10.7875977 56.9040527,8.49609375 C56.9040527,6.22363281 55.5900879,4.84619141 53.4572754,4.84619141 C51.3244629,4.84619141 50.010498,6.22998047 50.010498,8.49609375 C50.010498,10.7875977 51.3054199,12.1523438 53.4572754,12.1523438 Z M53.4572754,10.6416016 C52.467041,10.6416016 51.9084473,9.86083984 51.9084473,8.49609375 C51.9084473,7.15039062 52.4733887,6.35693359 53.4572754,6.35693359 C54.4348145,6.35693359 55.0061035,7.15039062 55.0061035,8.49609375 C55.0061035,9.85449219 54.4411621,10.6416016 53.4572754,10.6416016 Z M58.4719238,12 L60.3190918,12 L60.3190918,2.32617188 L58.4719238,2.32617188 L58.4719238,12 Z M62.0773926,7.05517578 C62.0773926,5.72851562 63.2453613,4.84619141 64.9909668,4.84619141 C66.7683105,4.84619141 67.8156738,5.58886719 67.9172363,6.92822266 L66.2097168,6.92822266 C66.114502,6.47753906 65.689209,6.19824219 65.0036621,6.19824219 C64.3435059,6.19824219 63.8547363,6.49658203 63.8547363,6.94091797 C63.8547363,7.28369141 64.1530762,7.49316406 64.8005371,7.63916016 L66.114502,7.92480469 C67.4729004,8.22314453 68.0822754,8.79443359 68.0822754,9.84179688 C68.0822754,11.2382812 66.8317871,12.1523438 64.9973145,12.1523438 C63.1501465,12.1523438 62.032959,11.3969727 61.9060059,10.0512695 L63.7087402,10.0512695 C63.8483887,10.5273438 64.2990723,10.800293 65.0354004,10.800293 C65.7526855,10.800293 66.2478027,10.5019531 66.2478027,10.0512695 C66.2478027,9.70849609 65.9812012,9.49902344 65.3654785,9.36572266 L64.0959473,9.08007812 C62.7375488,8.78173828 62.0773926,8.13427734 62.0773926,7.05517578 Z"/>
      <polyline stroke="#54595D" stroke-linecap="square" stroke-width="1.5" points="74 10 77 7 77 7 80 10" transform="rotate(-180 77 8.5)"/>
    </g>
    <path fill="#54595D" fill-rule="nonzero" d="M9.51000977,18 L9.51000977,8.84033203 L7.59301758,8.84033203 L7.59301758,12.534668 L3.46704102,12.534668 L3.46704102,8.84033203 L1.55004883,8.84033203 L1.55004883,18 L3.46704102,18 L3.46704102,14.1723633 L7.59301758,14.1723633 L7.59301758,18 L9.51000977,18 Z M11.5603027,18 L13.4074707,18 L13.4074707,10.9985352 L11.5603027,10.9985352 L11.5603027,18 Z M12.4870605,9.95117188 C13.0646973,9.95117188 13.5344238,9.48144531 13.5344238,8.89111328 C13.5344238,8.30078125 13.0646973,7.83740234 12.4870605,7.83740234 C11.9157715,7.83740234 11.4396973,8.30078125 11.4396973,8.89111328 C11.4396973,9.48144531 11.9157715,9.95117188 12.4870605,9.95117188 Z M15.1149902,13.0551758 C15.1149902,14.1342773 15.7751465,14.7817383 17.1335449,15.0800781 L18.4030762,15.3657227 C19.0187988,15.4990234 19.2854004,15.7084961 19.2854004,16.0512695 C19.2854004,16.5019531 18.7902832,16.800293 18.072998,16.800293 C17.3366699,16.800293 16.8859863,16.5273438 16.7463379,16.0512695 L14.9436035,16.0512695 C15.0705566,17.3969727 16.1877441,18.1523438 18.0349121,18.1523438 C19.8693848,18.1523438 21.119873,17.2382812 21.119873,15.8417969 C21.119873,14.7944336 20.510498,14.2231445 19.1520996,13.9248047 L17.8381348,13.6391602 C17.1906738,13.4931641 16.892334,13.2836914 16.892334,12.940918 C16.892334,12.496582 17.3811035,12.1982422 18.0412598,12.1982422 C18.7268066,12.1982422 19.1520996,12.4775391 19.2473145,12.9282227 L20.954834,12.9282227 C20.8532715,11.5888672 19.8059082,10.8461914 18.0285645,10.8461914 C16.282959,10.8461914 15.1149902,11.7285156 15.1149902,13.0551758 Z M23.1320801,9.33544922 L23.1320801,11.0683594 L22.0402832,11.0683594 L22.0402832,12.5219727 L23.1320801,12.5219727 L23.1320801,16.1083984 C23.1320801,17.4731445 23.8049316,18.0253906 25.5061035,18.0253906 C25.8615723,18.0253906 26.2043457,17.9873047 26.4328613,17.9428711 L26.4328613,16.5336914 L26.2333926,16.5508555 C26.1352832,16.5567969 26.0316895,16.559082 25.8869629,16.559082 C25.2585449,16.559082 24.979248,16.2797852 24.979248,15.6704102 L24.979248,12.5219727 L26.4328613,12.5219727 L26.4328613,11.0683594 L24.979248,11.0683594 L24.979248,9.33544922 L23.1320801,9.33544922 Z M31.0222168,18.1523438 C33.1740723,18.1523438 34.4689941,16.7875977 34.4689941,14.4960938 C34.4689941,12.2236328 33.1550293,10.8461914 31.0222168,10.8461914 C28.8894043,10.8461914 27.5754395,12.2299805 27.5754395,14.4960938 C27.5754395,16.7875977 28.8703613,18.1523438 31.0222168,18.1523438 Z M31.0222168,16.6416016 C30.0319824,16.6416016 29.4733887,15.8608398 29.4733887,14.4960938 C29.4733887,13.1503906 30.0383301,12.3569336 31.0222168,12.3569336 C31.9997559,12.3569336 32.5710449,13.1503906 32.5710449,14.4960938 C32.5710449,15.8544922 32.0061035,16.6416016 31.0222168,16.6416016 Z M35.9733887,18 L37.8205566,18 L37.8205566,14.121582 C37.8205566,13.1376953 38.5124512,12.5410156 39.5217285,12.5410156 C39.8200684,12.5410156 40.251709,12.5981445 40.3977051,12.6552734 L40.3977051,10.9731445 C40.2390137,10.9160156 39.9279785,10.8842773 39.6740723,10.8842773 C38.7854004,10.8842773 38.0617676,11.4174805 37.8776855,12.1157227 L37.7634277,12.1157227 L37.7634277,10.9985352 L35.9733887,10.9985352 L35.9733887,18 Z M42.5939941,20.5454102 L42.0218124,20.5346985 C41.9576416,20.5323181 41.9084473,20.529541 41.8894043,20.5263672 L41.8894043,19.0410156 C41.9528809,19.0537109 42.2321777,19.0537109 42.3083496,19.0537109 C43.0002441,19.0537109 43.3937988,18.831543 43.5461426,18.2983398 L43.6096191,18.0444336 L41.1530762,10.9985352 L43.1906738,10.9985352 L44.6633301,16.3051758 L44.7775879,16.3051758 L46.2502441,10.9985352 L48.2053223,10.9985352 L45.7932129,18.1079102 C45.1965332,19.9106445 44.3395996,20.5454102 42.5939941,20.5454102 Z"/>
    <g transform="translate(159)">
      <rect width="68" height="25" x=".5" y=".5" fill="#EAECF0" stroke="#A2A9B1" rx="2"/>
      <path fill="#54595D" fill-rule="nonzero" d="M36.3569336,15.3623047 L32.2055664,15.3623047 L32.2055664,13.1342773 L36.1220703,13.1342773 L36.1220703,11.6171875 L32.2055664,11.6171875 L32.2055664,9.47802734 L36.3569336,9.47802734 L36.3569336,7.84033203 L30.2885742,7.84033203 L30.2885742,17 L36.3569336,17 L36.3569336,15.3623047 Z M40.6987305,17.1079102 C41.6699219,17.1079102 42.4633789,16.6572266 42.8378906,15.9018555 L42.9521484,15.9018555 L42.9521484,17 L44.7421875,17 L44.7421875,7.32617188 L42.8950195,7.32617188 L42.8950195,11.1157227 L42.7871094,11.1157227 C42.425293,10.3413086 41.6445312,9.88427734 40.6987305,9.88427734 C38.9404297,9.88427734 37.8486328,11.2617188 37.8486328,13.4897461 C37.8486328,15.7241211 38.934082,17.1079102 40.6987305,17.1079102 Z M41.3271484,11.4331055 C42.3110352,11.4331055 42.9140625,12.2265625 42.9140625,13.5024414 C42.9140625,14.784668 42.3173828,15.5654297 41.3271484,15.5654297 C40.3369141,15.5654297 39.746582,14.7910156 39.746582,13.4960938 C39.746582,12.2138672 40.3432617,11.4331055 41.3271484,11.4331055 Z M46.671875,17 L48.519043,17 L48.519043,9.99853516 L46.671875,9.99853516 L46.671875,17 Z M47.5986328,8.95117188 C48.1762695,8.95117188 48.6459961,8.48144531 48.6459961,7.89111328 C48.6459961,7.30078125 48.1762695,6.83740234 47.5986328,6.83740234 C47.0273438,6.83740234 46.5512695,7.30078125 46.5512695,7.89111328 C46.5512695,8.48144531 47.0273438,8.95117188 47.5986328,8.95117188 Z M50.9121094,8.33544922 L52.7592773,8.33544922 L52.7592773,10.0683594 L54.2128906,10.0683594 L54.2128906,11.5219727 L52.7592773,11.5219727 L52.7592773,14.6704102 C52.7592773,15.2797852 53.0385742,15.559082 53.6669922,15.559082 L53.9121641,15.5556289 C54.0178906,15.5519727 54.10625,15.5451172 54.2128906,15.5336914 L54.2128906,16.9428711 C53.984375,16.9873047 53.6416016,17.0253906 53.2861328,17.0253906 C51.5849609,17.0253906 50.9121094,16.4731445 50.9121094,15.1083984 L50.9121094,11.5219727 L49.8203125,11.5219727 L49.8203125,10.0683594 L50.9121094,10.0683594 L50.9121094,8.33544922 Z"/>
      <path fill="#54595D" d="M21.6367993,11.2780728 L22.8223028,10.0559042 C23.0592324,9.8175569 23.0592324,9.43262268 22.8223028,9.19427536 L20.7812813,7.1776972 C20.5429339,6.9407676 20.1579997,6.9407676 19.9196524,7.1776972 L18.7219272,8.36320073 L21.6367993,11.2780728 Z M18.0863995,9.01095007 L12,15.0973496 L12,18 L14.9026504,18 L20.9890499,11.9136005 L18.0863995,9.01095007 Z"/>
    </g>
  </g>
</svg>
