<?xml version="1.0" encoding="UTF-8"?>
<svg width="55px" height="18px" viewBox="0 0 55 18" version="1.1" xmlns="http://www.w3.org/2000/svg" xmlns:xlink="http://www.w3.org/1999/xlink">
    <!-- Generator: Sketch 60 (88103) - https://sketch.com -->
    <title>settings-user</title>
    <desc>Created with Sketch.</desc>
    <g id="settings-user" stroke="none" stroke-width="1" fill="none" fill-rule="evenodd">
        <path d="M15.4414091,9.87749901 C15.4774091,9.58949904 15.5044091,9.29699907 15.5044091,9 C15.5044091,8.70299913 15.4774091,8.41049916 15.4414091,8.12249919 L17.3449089,6.63299934 C17.5159089,6.49799935 17.5654089,6.25499937 17.4529089,6.05699939 L15.6529091,2.93849971 C15.5404091,2.74499973 15.3064091,2.66399973 15.1039092,2.74499973 L12.8629094,3.64949964 C12.3994094,3.29399967 11.8909095,2.9924997 11.3419095,2.76299972 L11.0044096,0.377999962 C10.9639096,0.166499983 10.7794096,0 10.5544096,0 L6.95440998,0 C6.72941,0 6.54491002,0.166499983 6.50891002,0.377999962 L6.17141006,2.76299972 C5.62241011,2.9924997 5.11391016,3.28949967 4.65041021,3.64949964 L2.40941043,2.74499973 C2.20691045,2.66849973 1.97291003,2.74499973 1.86041004,2.93849971 L0.0604102189,6.05699939 C-0.0520897699,6.25049937 -0.00258977482,6.49349935 0.168410208,6.63299934 L2.06741002,8.12249919 C2.03141047,8.41049916 2.00441047,8.70299913 2.00441047,9 C2.00441047,9.29699907 2.03141047,9.58949904 2.06741047,9.87749901 L0.168411108,11.3669989 C-0.00258932482,11.5019988 -0.0520893199,11.7449988 0.0604106689,11.9429988 L1.86041049,15.0614985 C1.97291048,15.2549985 2.2069109,15.3359994 2.40941088,15.2549985 L4.65041021,14.3504986 C5.11391016,14.7059985 5.62241011,15.0074985 6.17141006,15.2369985 L6.50891002,17.622 C6.54491002,17.8335005 6.72941,18 6.95440998,18 L10.5544096,18 C10.7794096,18 10.9639096,17.8335005 10.9999096,17.622 L11.3374095,15.2369985 C11.8864095,15.007503 12.3949094,14.7104985 12.8584094,14.3504986 L15.0994092,15.2549985 C15.3019091,15.3314985 15.5359091,15.2549985 15.6484091,15.0614985 L17.4484089,11.9429988 C17.5609089,11.7494988 17.5114089,11.5064988 17.3404089,11.3669989 L15.4414091,9.87749901 Z M8.7544098,12.1499988 C7.01290997,12.1499988 5.60441011,10.7414989 5.60441011,8.9999991 C5.60441011,7.25849927 7.01290997,5.84999942 8.7544098,5.84999942 C10.4959096,5.84999942 11.9044095,7.25849927 11.9044095,8.9999991 C11.9044095,10.7414989 10.4959096,12.1499988 8.7544098,12.1499988 Z" id="Fill-1" fill="#54595D" fill-rule="nonzero"></path>
        <path d="M47,10 C52.92,10 55,13 55,15 L55,18 L39,18 L39,15 C39,13 41.08,10 47,10 Z M47,9 C44.5147186,9 42.5,6.98528137 42.5,4.5 C42.5,2.01471863 44.5147186,0 47,0 C49.4852814,0 51.5,2.01471863 51.5,4.5 C51.5,6.98528137 49.4852814,9 47,9 Z" id="Shape" fill="#54595D" fill-rule="nonzero"></path>
    </g>
</svg>